<?xml version="1.0" encoding="utf-8"?>
<!-- Generator: Adobe Illustrator 16.0.0, SVG Export Plug-In . SVG Version: 6.00 Build 0)  -->
<!DOCTYPE svg PUBLIC "-//W3C//DTD SVG 1.1//EN" "http://www.w3.org/Graphics/SVG/1.1/DTD/svg11.dtd">
<svg version="1.1" id="圖層_1" xmlns="http://www.w3.org/2000/svg" xmlns:xlink="http://www.w3.org/1999/xlink" x="0px" y="0px"
	 width="960px" height="560px" viewBox="0 0 960 560" enable-background="new 0 0 960 560" xml:space="preserve">
<g>
	<path fill-rule="evenodd" clip-rule="evenodd" fill="#C0BFBF" d="M682.784,88.316c7.956,1.432,16.038,2.372,23.845,4.379
		c39.415,10.136,68.13,33.606,85.214,70.557c5.575,12.059,10.934,24.635,13.535,37.55c3.567,17.716,2.125,35.777-3.829,53.197
		c-6.636,19.417-17.05,36.873-27.734,54.207c-10.088,16.365-19.369,33.287-30.314,49.055
		c-25.188,36.283-44.893,75.789-67.94,113.314c-0.193,0.316-0.439,0.6-0.817,1.109c-0.524-0.559-1.102-0.996-1.453-1.57
		c-35.133-57.545-70.334-115.047-105.308-172.689c-9.471-15.607-17.883-31.904-22.231-49.739
		c-7.979-32.728-3.429-64.188,12.928-93.444c20.774-37.158,53.346-57.725,95.021-64.477c3.19-0.517,6.392-0.968,9.588-1.448
		C669.786,88.316,676.285,88.316,682.784,88.316z M626.967,218.285c0.128,0.028,0.257,0.056,0.385,0.084
		c0.276,4.357,0.516,8.718,0.856,13.071c0.076,0.977,0.443,1.948,0.782,2.885c8.733,24.138,33.538,36.896,58.293,29.998
		c24.733-6.893,40.395-31.562,35.662-56.173c-5.304-27.577-29.408-44.441-57.173-39.409c-17.784,3.223-31.408,12.313-36.472,30.687
		C627.637,205.469,627.695,211.985,626.967,218.285z"/>
</g>
</svg>
