<?xml version="1.0" encoding="utf-8"?>
<!-- Generator: Adobe Illustrator 16.0.0, SVG Export Plug-In . SVG Version: 6.00 Build 0)  -->
<!DOCTYPE svg PUBLIC "-//W3C//DTD SVG 1.1//EN" "http://www.w3.org/Graphics/SVG/1.1/DTD/svg11.dtd">
<svg version="1.1" id="圖層_1" xmlns="http://www.w3.org/2000/svg" xmlns:xlink="http://www.w3.org/1999/xlink" x="0px" y="0px"
	 width="595.28px" height="841.89px" viewBox="0 0 595.28 841.89" enable-background="new 0 0 595.28 841.89" xml:space="preserve">
<g>
	<path fill-rule="evenodd" clip-rule="evenodd" fill="#E4BA1D" d="M-286.574,257.781c0,0.1,0,0.2,0,0.299
		c-0.16,0.886-0.807,1.428-1.406,2.009c-2.041,1.984-4.072,3.978-6.118,5.957c-0.606,0.586-0.86,1.285-0.722,2.101
		c0.501,2.968,1.031,5.931,1.526,8.9c0.083,0.496,0.157,1.037,0.044,1.513c-0.304,1.283-1.731,1.838-2.965,1.194
		c-2.73-1.424-5.461-2.848-8.173-4.306c-0.934-0.502-1.788-0.501-2.722,0c-2.701,1.453-5.425,2.862-8.139,4.292
		c-0.774,0.408-1.535,0.415-2.256-0.098c-0.718-0.51-0.936-1.243-0.793-2.082c0.504-2.967,1-5.937,1.545-8.896
		c0.21-1.139,0.003-2.042-0.877-2.865c-1.996-1.867-3.926-3.805-5.887-5.71c-0.598-0.581-1.246-1.123-1.407-2.009
		c0-0.1,0-0.2,0-0.299c0.033-0.079,0.08-0.154,0.095-0.235c0.167-0.873,0.756-1.461,1.641-1.62c0.354-0.063,0.713-0.108,1.07-0.16
		c2.732-0.397,5.462-0.809,8.198-1.183c1.039-0.142,1.771-0.604,2.216-1.583c0.588-1.292,1.248-2.553,1.876-3.826
		c0.745-1.508,1.487-3.018,2.236-4.523c0.319-0.641,0.806-1.085,1.545-1.148c1.087-0.094,1.708,0.269,2.193,1.248
		c1.386,2.804,2.772,5.607,4.151,8.414c0.354,0.72,0.889,1.208,1.688,1.333c1.561,0.244,3.125,0.458,4.688,0.686
		c1.698,0.249,3.398,0.487,5.093,0.756c0.641,0.102,1.119,0.477,1.389,1.079C-286.737,257.264-286.664,257.526-286.574,257.781z"/>
</g>
</svg>
